/* XPM */
static char *freeimage[] = {
/* width height num_colors chars_per_pixel */
"32 32 99 2",
/* colors */
"   c #ffffff",
" . c #ced5c9",
" X c #8ea086",
" o c #697f5d",
" O c #f3f5f2",
" + c #435f36",
" @ c #385629",
" # c #b4c0ae",
" $ c #829578",
" % c #d9e0d7",
" & c #506b42",
" * c #788d6e",
" = c #91a289",
" - c #aab7a4",
" ; c #abb8a5",
" : c #98a790",
" > c #536d46",
" , c #9baa93",
" < c #39572a",
" 1 c #899b80",
" 2 c #cfd6cb",
" 3 c #d8ded6",
" 4 c #c4cdc0",
" 5 c #f5f7f5",
" 6 c #e7eae5",
" 7 c #667d5a",
" 8 c #506a43",
" 9 c #b9c4b4",
" 0 c #7c9072",
" q c #7f9275",
" w c #aebaa8",
" e c #c1cabc",
" r c #637b58",
" t c #d0d7cc",
" y c #c8d0c4",
" u c #58714b",
" i c #798d6f",
" p c #b5c0b0",
" a c #415d33",
" s c #c6cfc2",
" d c #dee3db",
" f c #5f7752",
" g c #94a58c",
" h c #5c7551",
" j c #a4b29d",
" k c #8b9d82",
" l c #85977c",
" z c #ccd4c8",
" x c #405d32",
" c c #6b8160",
" v c #d1d8cd",
" b c #3e5b2f",
" n c #3f5c31",
" m c #91a188",
" M c #5b744f",
" N c #afbba9",
" B c #9cab95",
" V c #546d47",
" C c #889a7f",
" Z c #acb8a6",
" A c #476339",
" S c #b0bcaa",
" D c #f1f4f0",
" F c #dde2db",
" G c #a5b29e",
" H c #5d7551",
" J c #7b8f72",
" K c #eaeee9",
" L c #c2cbbd",
" P c #a8b5a1",
" I c #8e9f86",
" U c #3d5a2e",
" Y c #dbe0d8",
" T c #a7b4a1",
" R c #e4e8e2",
" E c #778b6d",
" W c #e8ece6",
" Q c #9fae98",
" ! c #677e5c",
" ~ c #f7f8f6",
" ^ c #d4dad0",
" / c #6c8261",
" ( c #607854",
" ) c #b1bdac",
" _ c #c5cec1",
" ` c #b2beac",
" ' c #f9faf9",
" ] c #84977b",
" [ c #456137",
" { c #b4bfae",
" } c #ecefeb",
" | c #526c45",
".  c #748969",
".. c #a0ae99",
".X c #b3bead",
".o c #a3b09c",
".O c #8c9d83",
".+ c #516b44",
".@ c #e7e9e4",
/* pixels */
"                                                                ",
"                                                                ",
"                       . X o o o o o o X .                      ",
"                 O X + @ @ @ @ @ @ @ @ @ @ + X O                ",
"               # + @ @ @ @ @ @ @ @ @ @ @ @ @ @ + #              ",
"             $ @ @ @ @ @ @ @ @ @ @ @ @ @ @ @ @ @ @ $            ",
"           # @ @ @ @ @ @ @ @ @ @ @ @ @ @ @ @ @ @ @ @ #          ",
"         % @ @ @ @ @ @ @ @ @ @ @ @ @ @ @ @ @ @ @ @ @ @ %        ",
"       O & @ @ @ @ @ @ @ @ @ @ @ @ * = - ; : > @ @ @ @ & O      ",
"       , @ @ @ @ @ @ @ @ @ @ < 1 2   3 4 5   6 7 @ @ @ @ ,      ",
"       + @ @ @ @ @ @ @ @ @ 8 9   3 0 @ @ q     w @ @ @ @ +      ",
"     e @ @ @ @ @ @ @ @ @ r t   y u @ @ @ i     p @ @ @ @ @ e    ",
"     $ @ @ @ @ @ @ @ @ a s   d f @ @ @ @ w     g @ @ @ @ @ $    ",
"     h @ @ @ @ @ @ @ @ j     k @ @ @ @ l     z x @ @ @ @ @ h    ",
"     @ @ @ @ @ @ @ @ c     v b @ @ n m     s M @ @ @ @ @ @ @    ",
"     @ @ @ @ @ @ @ @ N     B @ V C v   O Z A @ @ @ @ @ @ @ @    ",
"     @ @ @ @ @ @ @ M O     S z D   F G H @ @ @ @ @ @ @ @ @ @    ",
"     @ @ @ @ @ @ @ J     K L P I o U @ @ @ @ @ @ @ @ @ @ @ @    ",
"     o @ @ @ @ @ @ g     Y @ @ @ @ @ @ @ @ @ @ @ @ @ @ @ @ o    ",
"     $ @ @ @ @ @ @ T     R a @ @ @ @ @ @ @ r 8 @ @ @ @ @ @ $    ",
"     # @ @ @ @ @ @ k       E @ @ @ @ @ @ l W Q @ @ @ @ @ @ #    ",
"     O + @ @ @ @ @ ! ~     ^ / @ @ @ ( )   g @ @ @ @ @ @ + O    ",
"       , @ @ @ @ @ @ j       5 _ ` _ ' d ] @ @ @ @ @ @ @ ,      ",
"       O + @ @ @ @ @ [ {           } Z | @ @ @ @ @ @ @ + O      ",
"         # @ @ @ @ @ @ @. ...X.o.O.+ @ @ @ @ @ @ @ @ @ #        ",
"           $ @ @ @ @ @ @ @ @ @ @ @ @ @ @ @ @ @ @ @ @ $          ",
"             , @ @ @ @ @ @ @ @ @ @ @ @ @ @ @ @ @ @ ,            ",
"               . + @ @ @ @ @ @ @ @ @ @ @ @ @ @ + .              ",
"                 O X @ @ @ @ @ @ @ @ @ @ @ @ X O                ",
"                    .@ , h @ @ @ @ @ @ h ,.@                    ",
"                                                                ",
"                                                                "
};
